<svg xmlns="http://www.w3.org/2000/svg" viewBox="0 0 737.38 652.88"><defs><style>.cls-1{fill:#b31f33;}.cls-2{fill:#fff;}.cls-3{fill:#231f20;}</style></defs><title>Asset 2</title><g id="Layer_2" data-name="Layer 2"><g id="flat"><rect class="cls-1" width="737.38" height="652.88"/><path class="cls-2" d="M499.5,218.79H388.36a4.38,4.38,0,0,0-4.38,4.38V412.34a4.38,4.38,0,0,0,4.38,4.38h37.77a4.39,4.39,0,0,0,4.39-4.38V360.27h69a33.59,33.59,0,0,0,33.6-33.59v-74.3A33.59,33.59,0,0,0,499.5,218.79ZM486.56,316h-56V263.06h56Z"/><path class="cls-2" d="M329.77,218.79H290.31a4.38,4.38,0,0,0-4.38,4.38V372.46H225.47V259.74c2.59-1.05,4.06-2.25,4.06-3.53,0-3.38-10.31-6.23-24.41-7.13V235h14.67c.57,5.44,4.71,9.67,9.74,9.67,5.42,0,9.82-4.89,9.82-10.93s-4.4-10.93-9.82-10.93c-4.76,0-8.72,3.78-9.62,8.79H205.12v-9.46a2.08,2.08,0,0,1,2.08-2.08h6.32V209l-24,1a14.33,14.33,0,0,0-9.13,3.83l-28.57,26.73a9,9,0,0,0-2.86,6.58v87.66a1.3,1.3,0,0,0,2.6.06l4.08-85.08,19.19-13.18h10.69v12.53c-13.8.94-23.82,3.76-23.82,7.09,0,1.39,1.74,2.69,4.78,3.8V383.13a33.59,33.59,0,0,0,33.59,33.59H300.56a33.59,33.59,0,0,0,33.59-33.59v-160A4.38,4.38,0,0,0,329.77,218.79Zm-100.23,7c3.93,0,7.12,3.56,7.12,7.95s-3.19,8-7.12,8-7.12-3.56-7.12-8S225.61,225.78,229.54,225.78ZM195.63,379.24a11.58,11.58,0,1,1,11.57-11.58A11.58,11.58,0,0,1,195.63,379.24Zm0-29.34a11.57,11.57,0,1,1,11.57-11.57A11.57,11.57,0,0,1,195.63,349.9Zm0-29.33A11.57,11.57,0,1,1,207.2,309,11.57,11.57,0,0,1,195.63,320.57Zm0-29.33a11.58,11.58,0,1,1,11.57-11.57A11.57,11.57,0,0,1,195.63,291.24Z"/><path class="cls-2" d="M544.18,149H530a1.74,1.74,0,0,0-1.36.64l-19,23.27V150.18a1.18,1.18,0,0,0-1.19-1.18H496.86a1.18,1.18,0,0,0-1.19,1.18V200.6a1.19,1.19,0,0,0,1.19,1.19h11.57a1.19,1.19,0,0,0,1.19-1.19V189.68l8-9,11.55,20a2.2,2.2,0,0,0,1.9,1.1h12.25a.94.94,0,0,0,.82-1.41l-17.33-30,17.9-20.09A.75.75,0,0,0,544.18,149Z"/><path class="cls-2" d="M376.54,149H336.43a1.18,1.18,0,0,0-1.19,1.18V161a1.19,1.19,0,0,0,1.19,1.19h13.08V200.6a1.19,1.19,0,0,0,1.19,1.19h11.57a1.19,1.19,0,0,0,1.19-1.19V162.15h13.08a1.19,1.19,0,0,0,1.19-1.19V150.18A1.19,1.19,0,0,0,376.54,149Z"/><path class="cls-2" d="M325.47,149H292.69a6.21,6.21,0,0,0-6.22,6.22v19.19c0,4.24,4.46,7,8.78,7H314.8v8.44H287.66a1.19,1.19,0,0,0-1.19,1.19v9.59a1.19,1.19,0,0,0,1.19,1.19h32.77a6.23,6.23,0,0,0,6.23-6.23V175.63a6.22,6.22,0,0,0-6.23-6.22H298.32V161h27.15a1.19,1.19,0,0,0,1.19-1.19v-9.59A1.19,1.19,0,0,0,325.47,149Z"/><path class="cls-2" d="M482.89,149H450.71a8.08,8.08,0,0,0-8.09,8.08V193.7a8.09,8.09,0,0,0,8.09,8.09h32.18a1.19,1.19,0,0,0,1.19-1.19V189.82a1.19,1.19,0,0,0-1.19-1.19H456.57V162.15h26.32a1.19,1.19,0,0,0,1.19-1.19V150.18A1.18,1.18,0,0,0,482.89,149Z"/><path class="cls-2" d="M422.49,149H394.43a8.64,8.64,0,0,0-8.64,8.64v43a1.2,1.2,0,0,0,1.19,1.19h11.58a1.19,1.19,0,0,0,1.18-1.19v-15h17.44v15a1.2,1.2,0,0,0,1.19,1.19H430a1.19,1.19,0,0,0,1.18-1.19v-43A8.63,8.63,0,0,0,422.49,149Zm-22.75,24.73V160.85h17.44v12.88Z"/><rect class="cls-2" x="551.88" y="168.14" width="36.5" height="13.75"/><rect class="cls-2" x="550.13" y="220.84" width="8.6" height="8.6"/><path class="cls-2" d="M583.26,239.14h-28a5.13,5.13,0,0,0-5.13,5.13v21.5a5.13,5.13,0,0,0,5.13,5.12h28a5.12,5.12,0,0,0,5.12-5.12v-21.5A5.13,5.13,0,0,0,583.26,239.14Zm-1.13,25.5H556.38V245.39h25.75Z"/><path class="cls-2" d="M550.32,284.25v6.25H563v11.32L550.32,309v7.25L563,309.07v1.81a5.12,5.12,0,0,0,5.12,5.12h15.13a5.12,5.12,0,0,0,5.12-5.12V284.25Zm31.81,25.5H569.26V290.5h12.87Z"/><path class="cls-2" d="M583.26,327.39h-28a5.13,5.13,0,0,0-5.13,5.13V354a5.13,5.13,0,0,0,5.13,5.12h13.37v-6.25H556.38V333.64h25.75v23.13h6.25V332.52A5.13,5.13,0,0,0,583.26,327.39Z"/><path class="cls-3" d="M222.05,214.88c2.81,0,56.42-51.28,56.42-51.28l-45,4.13,13.05-58.37-46.06,45.39L189,125l-11.76,34.86-55.94-53.66,18.43,66.69L83.5,158.2l33,34L50,189.89l65.05,37L91.68,247.46l50.19-4.05-24.18-3.58L149.11,229l-40-18.94,49,5.72-22.57-28L169,206.07l-21.57-59.21,36.28,54.24,7.84-38,5.36,37.61,26.17-46.46-9.87,47,39-22.25S222.05,212.13,222.05,214.88Z"/><rect class="cls-3" x="160.01" y="427.17" width="432.2" height="74.35"/><path class="cls-2" d="M169.43,474.21c0-5,5-7.52,10-7.52,3.78,0,7.64,1.63,9.36,4.9L186,472.81c-1.16-2.14-3.93-3.26-6.59-3.26-3.4,0-6.85,1.53-6.85,4.66v9.7c0,3.2,3.48,4.73,6.93,4.73s7-1.53,7-4.73v-2.42h-7.82v-2.82h10.93v5.24c0,5.1-5,7.62-10.07,7.62s-10-2.52-10-7.62Z"/><path class="cls-2" d="M201,467.09h3.82l9.58,24.1h-3.29l-3.07-7.72H197.83c-1,2.51-2.06,5.2-3,7.72h-3.33ZM207,480.61c-1.46-3.71-2.55-6.61-4-10.45-1.35,3.54-2.63,6.84-4.05,10.45Z"/><path class="cls-2" d="M228.3,488l-7.68-15.56v18.72h-3.14v-24.1h3.93l8.2,16.82c2.73-5.55,5.54-11.23,8.2-16.82h3.93v24.1H238.6V472.44L231,488Z"/><path class="cls-2" d="M246.42,467.09h3.11v24.1h-3.11Z"/><path class="cls-2" d="M257.57,467.09,271.2,487V467.09h3.14v24.1h-4l-13-19.09v19.09H254.2v-24.1Z"/><path class="cls-2" d="M278.28,474.21c0-5,5-7.52,10-7.52,3.78,0,7.64,1.63,9.36,4.9l-2.85,1.22c-1.16-2.14-3.93-3.26-6.59-3.26-3.4,0-6.85,1.53-6.85,4.66v9.7c0,3.2,3.48,4.73,6.93,4.73s7-1.53,7-4.73v-2.42h-7.82v-2.82h10.93v5.24c0,5.1-5,7.62-10.07,7.62s-10-2.52-10-7.62Z"/><path class="cls-2" d="M312.88,467.09H316v24.1h-3.1Z"/><path class="cls-2" d="M329.77,477.31c4.61.81,9.66,1.77,9.32,7.69-.26,4.42-4.9,6.6-9.62,6.6-4,0-8.2-1.73-9.85-5.17l2.89-1.19c1.12,2.31,4.15,3.54,7,3.54,3.14,0,6.21-1.3,6.4-3.92.34-3.47-3.18-4.15-6.93-4.86-4.3-.82-8.8-2.05-8.83-6.88.26-4.22,4.75-6.47,9.32-6.47,3.93,0,8.09,1.67,9.7,5l-2.85,1.16c-1.09-2.25-4-3.44-6.85-3.44-3.07,0-6,1.26-6.22,3.81C323.07,476.12,326.29,476.69,329.77,477.31Z"/><path class="cls-2" d="M362.27,466.52c5.28,0,10.59,2.51,10.59,7.55v10.11c0,5-5.31,7.59-10.59,7.59s-10.6-2.55-10.6-7.59V474.07C351.67,469,357,466.52,362.27,466.52Zm-7.49,17.66c0,3.17,3.7,4.77,7.49,4.77s7.45-1.6,7.48-4.77V474.07c0-3.33-3.78-4.76-7.52-4.76s-7.45,1.5-7.45,4.76Z"/><path class="cls-2" d="M380.13,467.09v16.85c0,3.27,3.44,4.84,6.92,4.84s6.93-1.57,6.93-4.84V467.09h3.14v16.85c0,5.11-5.05,7.7-10.07,7.7S377,489.05,377,483.94V467.09Z"/><path class="cls-2" d="M421.41,491.19h-3.85L409,481.36H404.9v9.83h-3.14v-24.1h10.1c5.1,0,8.95,2.08,9.07,7.22,0,4.8-3.52,6.81-8.05,7ZM411.9,478.7c3.6,0,5.88-1.09,5.88-4.39s-2.43-4.42-5.88-4.36h-7v8.75Z"/><path class="cls-2" d="M438.59,491.19h-5.46v-24.1h10.44c12.7,0,12.55,16.65,0,16.65h-5Zm5-19.06h-5V479h5C448.93,479,449,472.13,443.57,472.13Z"/><path class="cls-2" d="M460.94,467.09h5.28l9.51,24.1H470l-2.32-5.51h-7.9l-2.21,5.51h-5.88Zm2.43,5.31-.75,3.48-1.49,5.2h5.09l-1.68-5.24-.75-3.44Z"/><path class="cls-2" d="M480.43,484c2.4,3.48,9.36,3.54,9.59.18.11-2.08-2.36-2.56-5.1-2.9-4.15-.58-8.46-2.35-8.38-7.66.3-4.56,4.9-6.94,9.66-6.94a10.66,10.66,0,0,1,8.95,4.25l-4.54,2.76a5.25,5.25,0,0,0-4.41-2.28c-2.1,0-3.94.72-4.05,2.38v0c0,2,2.25,2.25,4.57,2.69,4.61.78,9.1,2.31,8.84,8-.45,4.52-5.25,7-10.08,7a11.4,11.4,0,0,1-9.21-4.59Z"/><path class="cls-2" d="M501.49,484c2.39,3.48,9.36,3.54,9.58.18.11-2.08-2.36-2.56-5.09-2.9-4.16-.58-8.46-2.35-8.39-7.66.3-4.56,4.91-6.94,9.66-6.94a10.65,10.65,0,0,1,9,4.25l-4.53,2.76a5.27,5.27,0,0,0-4.42-2.28c-2.09,0-3.93.72-4,2.38v0c0,2,2.24,2.25,4.57,2.69,4.6.78,9.09,2.31,8.83,8-.45,4.52-5.24,7-10.07,7a11.4,11.4,0,0,1-9.21-4.59Z"/><path class="cls-2" d="M518.89,467.09h5.5v24.1h-5.5Z"/><path class="cls-2" d="M549.19,474.62v9.05c0,10.69-21.72,10.72-21.72,0v-9.05C527.47,463.86,549.19,463.93,549.19,474.62Zm-16.25,9.05c0,4.05,10.75,4,10.75,0v-9.05c0-4.16-10.75-4.05-10.75,0Z"/><path class="cls-2" d="M568.47,484.52c-.3-1.56-.75-4.59-.79-5.1V467.09h5.5v24.1H567.3l-8.08-12.66-1.61-3.27-.38.07.71,4.12v11.74H552.4v-24.1h5.43l8.39,13.14,1.87,4.36Z"/><path class="cls-2" d="M579.78,485.51a3,3,0,1,1,0,5.89,3,3,0,1,1,0-5.89Z"/><path class="cls-2" d="M176.72,456.36l-7.53-19h2.62l6.44,16.47,6.41-16.47h2.6l-7.5,19Z"/><path class="cls-2" d="M203.83,439.6H192.9v6.15H203V448H192.9v6.12h10.93v2.26H190.42V437.34h13.41Z"/><path class="cls-2" d="M222.52,437.34v2.26h-6.7v16.79h-2.48V439.6h-6.71v-2.26Z"/><path class="cls-2" d="M239.16,439.6H228.23v6.15h10.08V448H228.23v6.12h10.93v2.26H225.75V437.34h13.41Z"/><path class="cls-2" d="M258.46,456.39h-3l-6.76-7.76h-3.22v7.76H243v-19h8c4,0,7.06,1.64,7.15,5.7,0,3.78-2.78,5.37-6.35,5.53Zm-7.5-9.86c2.84,0,4.64-.86,4.64-3.46s-1.92-3.5-4.64-3.44h-5.52v6.9Z"/><path class="cls-2" d="M268.44,437.37h3l7.56,19h-2.6l-2.42-6.1h-8.06c-.77,2-1.63,4.11-2.37,6.1h-2.62ZM273.13,448c-1.15-2.93-2-5.22-3.19-8.25-1.06,2.79-2.06,5.4-3.18,8.25Z"/><path class="cls-2" d="M284.91,437.37l10.76,15.72V437.37h2.48v19H295l-10.28-15.07v15.07h-2.48v-19Z"/><path class="cls-2" d="M309.86,445.43c3.63.64,7.62,1.4,7.35,6.07-.2,3.5-3.86,5.21-7.59,5.21-3.16,0-6.47-1.37-7.77-4.08l2.28-.94c.89,1.83,3.28,2.79,5.55,2.79,2.48,0,4.91-1,5.05-3.09.27-2.74-2.51-3.27-5.46-3.84-3.4-.64-6.94-1.61-7-5.42.2-3.34,3.75-5.11,7.35-5.11,3.1,0,6.38,1.32,7.65,4l-2.24.91c-.86-1.77-3.19-2.71-5.41-2.71-2.42,0-4.75,1-4.9,3C304.57,444.49,307.11,445,309.86,445.43Z"/><path class="cls-2" d="M334.5,437.37h3l7.56,19h-2.6l-2.42-6.1H332c-.77,2-1.63,4.11-2.37,6.1H327ZM339.19,448c-1.15-2.93-2-5.22-3.19-8.25-1.06,2.79-2.06,5.4-3.19,8.25Z"/><path class="cls-2" d="M363.82,456.39h-3L354,448.63h-3.23v7.76h-2.48v-19h8c4,0,7.06,1.64,7.15,5.7,0,3.78-2.78,5.37-6.35,5.53Zm-7.5-9.86c2.83,0,4.64-.86,4.64-3.46s-1.92-3.5-4.64-3.44h-5.53v6.9Z"/><path class="cls-2" d="M380.74,439.6H369.81v6.15h10.07V448H369.81v6.12h10.93v2.26H367.32V437.34h13.42Z"/><path class="cls-2" d="M400.65,436.91c4.16,0,8.36,2,8.36,6v8c0,4-4.2,6-8.36,6s-8.36-2-8.36-6v-8C392.29,438.9,396.45,436.91,400.65,436.91Zm-5.91,13.95c0,2.5,2.92,3.76,5.91,3.76s5.88-1.26,5.9-3.76v-8c0-2.64-3-3.76-5.93-3.76s-5.88,1.18-5.88,3.76Z"/><path class="cls-2" d="M415.54,437.37v13.3c0,2.58,2.72,3.81,5.47,3.81s5.46-1.23,5.46-3.81v-13.3H429v13.3c0,4-4,6.07-7.94,6.07s-7.95-2-7.95-6.07v-13.3Z"/><path class="cls-2" d="M448.92,456.39h-3l-6.77-7.76h-3.22v7.76h-2.48v-19h8c4,0,7.06,1.64,7.15,5.7,0,3.78-2.78,5.37-6.35,5.53Zm-7.5-9.86c2.83,0,4.64-.86,4.64-3.46s-1.92-3.5-4.64-3.44h-5.53v6.9Z"/><path class="cls-2" d="M474.86,445.13l-1,2.66-2.86,6.1h-3.25l-2.89-6.12-1-2.61h-.3l.48,3.68v7.55h-4.34v-19h4.54l5.08,10.93,5.14-10.93H479v19h-4.34v-7.58l.53-3.68Z"/><path class="cls-2" d="M483.18,437.37h4.34v19h-4.34Z"/><path class="cls-2" d="M494.41,450.75c1.89,2.74,7.39,2.79,7.56.13.09-1.63-1.86-2-4-2.28-3.28-.46-6.68-1.85-6.62-6,.24-3.6,3.87-5.49,7.62-5.49a8.38,8.38,0,0,1,7.06,3.36l-3.57,2.18a4.15,4.15,0,0,0-3.49-1.8c-1.65,0-3.1.56-3.19,1.88v0c0,1.56,1.77,1.77,3.6,2.12,3.64.62,7.18,1.83,7,6.31-.36,3.58-4.14,5.51-8,5.51a9,9,0,0,1-7.27-3.63Z"/><path class="cls-2" d="M512.56,450.75c1.89,2.74,7.38,2.79,7.56.13.09-1.63-1.86-2-4-2.28-3.28-.46-6.68-1.85-6.62-6,.23-3.6,3.87-5.49,7.62-5.49a8.38,8.38,0,0,1,7.06,3.36l-3.58,2.18a4.12,4.12,0,0,0-3.48-1.8c-1.65,0-3.1.56-3.19,1.88v0c0,1.56,1.77,1.77,3.6,2.12,3.64.62,7.18,1.83,7,6.31-.35,3.58-4.13,5.51-7.94,5.51a9,9,0,0,1-7.27-3.63Z"/><path class="cls-2" d="M527.83,437.37h4.34v19h-4.34Z"/><path class="cls-2" d="M553.27,443.31v7.14c0,8.44-17.13,8.47-17.13,0v-7.14C536.14,434.82,553.27,434.87,553.27,443.31Zm-12.82,7.14c0,3.2,8.48,3.17,8.48,0v-7.14c0-3.28-8.48-3.2-8.48,0Z"/><path class="cls-2" d="M570,451.13c-.23-1.24-.59-3.63-.62-4v-9.73h4.34v19h-4.63l-6.38-10-1.28-2.58-.29.05.56,3.25v9.27h-4.37v-19h4.28l6.62,10.37,1.48,3.44Z"/><path class="cls-2" d="M580.49,451.91a2.33,2.33,0,1,1-2.51,2.31A2.39,2.39,0,0,1,580.49,451.91Z"/></g></g></svg>